<svg width="14" height="14" viewBox="0 0 14 14" fill="none" xmlns="http://www.w3.org/2000/svg">
<g clip-path="url(#clip0_263_2232)">
<path d="M5.25032 7.00008L6.41699 8.16675L9.04199 5.54175M5.3681 12.0173C5.55929 11.992 5.75242 12.0438 5.90471 12.1611L6.60663 12.6997C6.83862 12.878 7.16138 12.878 7.39273 12.6997L8.1212 12.1404C8.25729 12.0361 8.42902 11.99 8.59883 12.0127L9.51006 12.1326C9.79974 12.1709 10.0791 12.0095 10.1912 11.7392L10.5419 10.8914C10.6073 10.7327 10.733 10.6069 10.8918 10.5414L11.7395 10.1908C12.0098 10.0793 12.1712 9.79938 12.1329 9.50964L12.0176 8.63143C11.9923 8.44022 12.0441 8.24707 12.1614 8.09477L12.7 7.39284C12.8782 7.16079 12.8782 6.83803 12.7 6.60668L12.1407 5.87816C12.0364 5.74206 11.9903 5.57031 12.013 5.40049L12.1329 4.48923C12.1712 4.19951 12.0098 3.92017 11.7395 3.80804L10.8918 3.45741C10.733 3.39194 10.6073 3.26621 10.5419 3.10741L10.1912 2.25966C10.0797 1.98939 9.79974 1.828 9.51006 1.86624L8.59883 1.98615C8.42902 2.00948 8.25729 1.96346 8.12184 1.85976L7.39337 1.30043C7.16138 1.12219 6.83862 1.12219 6.60727 1.30043L5.87881 1.85976C5.7427 1.96346 5.57095 2.00948 5.40115 1.98745L4.48993 1.86754C4.20023 1.8293 3.92091 1.99068 3.80879 2.26095L3.45881 3.10871C3.39271 3.26685 3.26698 3.39259 3.10884 3.4587L2.26114 3.80869C1.99088 3.92082 1.82951 4.20016 1.86774 4.48988L1.98764 5.40115C2.00967 5.57096 1.96366 5.74271 1.85997 5.87816L1.30066 6.60668C1.12244 6.83867 1.12244 7.16149 1.30066 7.39284L1.85997 8.12137C1.96431 8.25746 2.01032 8.42919 1.98764 8.599L1.86774 9.51028C1.82951 9.80002 1.99088 10.0793 2.26114 10.1915L3.10884 10.5421C3.26763 10.6076 3.39336 10.7333 3.45881 10.8921L3.80943 11.7398C3.92091 12.0102 4.20088 12.1715 4.49058 12.1333L5.3681 12.0173Z" stroke="#B2B2B5" stroke-linecap="round" stroke-linejoin="round"/>
</g>
<defs>
<clipPath id="clip0_263_2232">
<rect width="14" height="14" fill="white"/>
</clipPath>
</defs>
</svg>
