<svg width="14" height="14" viewBox="0 0 14 14" fill="none" xmlns="http://www.w3.org/2000/svg">
<path d="M8.16634 1.32397V3.73346C8.16634 4.06015 8.16634 4.2235 8.22992 4.34828C8.28587 4.45804 8.37506 4.54728 8.48484 4.60321C8.60962 4.66679 8.77295 4.66679 9.09967 4.66679H11.5091M9.33301 7.58342H4.66634M9.33301 9.91675H4.66634M5.83301 5.25008H4.66634M8.16634 1.16675H5.13301C4.15291 1.16675 3.66287 1.16675 3.28853 1.35749C2.95924 1.52526 2.69152 1.79298 2.52375 2.12227C2.33301 2.49661 2.33301 2.98665 2.33301 3.96675V10.0334C2.33301 11.0135 2.33301 11.5035 2.52375 11.8779C2.69152 12.2072 2.95924 12.4749 3.28853 12.6427C3.66287 12.8334 4.15291 12.8334 5.13301 12.8334H8.86634C9.84646 12.8334 10.3365 12.8334 10.7108 12.6427C11.0401 12.4749 11.3078 12.2072 11.4756 11.8779C11.6663 11.5035 11.6663 11.0135 11.6663 10.0334V4.66675L8.16634 1.16675Z" stroke="#B2B2B5" stroke-linecap="round" stroke-linejoin="round"/>
</svg>
