<svg width="32" height="32" viewBox="0 0 32 32" fill="none" xmlns="http://www.w3.org/2000/svg">
<path opacity="0.12" d="M21.6 28C23.8403 28 24.9603 28 25.816 27.564C26.5687 27.1805 27.1805 26.5687 27.564 25.816C28 24.9603 28 23.8403 28 21.6V10.4C28 8.15979 28 7.03969 27.564 6.18404C27.1805 5.43139 26.5687 4.81947 25.816 4.43597C24.9603 4 23.8403 4 21.6 4H10.4C8.15979 4 7.03968 4 6.18404 4.43597C5.43139 4.81947 4.81947 5.43139 4.43597 6.18404C4 7.03968 4 8.15979 4 10.4V21.6C4 23.8403 4 24.9603 4.43597 25.816C4.81947 26.5687 5.43139 27.1805 6.18404 27.564C7.03968 28 8.15979 28 10.4 28H21.6Z" fill="#CBEA43"/>
<path d="M23.3333 8.66667H8.66667M10.4 4H21.6C23.8403 4 24.9603 4 25.816 4.43597C26.5687 4.81947 27.1805 5.43139 27.564 6.18404C28 7.03968 28 8.15979 28 10.4V21.6C28 23.8403 28 24.9603 27.564 25.816C27.1805 26.5687 26.5687 27.1805 25.816 27.564C24.9603 28 23.8403 28 21.6 28H10.4C8.15979 28 7.03968 28 6.18404 27.564C5.43139 27.1805 4.81947 26.5687 4.43597 25.816C4 24.9603 4 23.8403 4 21.6V10.4C4 8.15979 4 7.03968 4.43597 6.18404C4.81947 5.43139 5.43139 4.81947 6.18404 4.43597C7.03968 4 8.15979 4 10.4 4Z" stroke="black" stroke-width="2" stroke-linecap="round" stroke-linejoin="round"/>
</svg>
