<svg width="53" height="53" viewBox="0 0 53 53" fill="none" xmlns="http://www.w3.org/2000/svg">
<path d="M0.242676 9.00247C0.242676 4.16861 4.16129 0.25 8.99515 0.25H44.0051C48.8389 0.25 52.7575 4.16862 52.7575 9.00247V44.0124C52.7575 48.8462 48.8389 52.7649 44.0051 52.7649H8.99515C4.16129 52.7649 0.242676 48.8462 0.242676 44.0124V9.00247Z" fill="#2C9DE9"/>
<path d="M25.75 15.75H21.75C19.6498 15.75 18.5997 15.75 17.7975 16.1587C17.0919 16.5183 16.5183 17.0919 16.1587 17.7975C15.75 18.5997 15.75 19.6498 15.75 21.75V32.25C15.75 34.3503 15.75 35.4003 16.1587 36.2025C16.5183 36.9081 17.0919 37.4818 17.7975 37.8413C18.5997 38.25 19.6498 38.25 21.75 38.25H32.25C34.3503 38.25 35.4003 38.25 36.2025 37.8413C36.9081 37.4818 37.4818 36.9081 37.8413 36.2025C38.25 35.4003 38.25 34.3503 38.25 32.25V28.25M27 22H32V27M31.375 16.375V14.5M36.2991 17.7008L37.625 16.375M37.6379 22.625H39.5129M15.75 28.6839C16.5649 28.8098 17.3998 28.875 18.25 28.875C23.733 28.875 28.5816 26.1595 31.5246 22" stroke="white" stroke-width="2" stroke-linecap="round" stroke-linejoin="round"/>
</svg>
