<svg width="53" height="53" viewBox="0 0 53 53" fill="none" xmlns="http://www.w3.org/2000/svg">
<rect x="0.243896" y="0.25" width="52.5149" height="52.5149" rx="8.75247" fill="#EB9D25"/>
<path opacity="0.12" d="M28.9121 22.4398C28.1966 22.9499 27.321 23.25 26.3752 23.25C23.959 23.25 22.0002 21.2913 22.0002 18.875C22.0002 16.4588 23.959 14.5 26.3752 14.5C27.9415 14.5 29.3155 15.323 30.0884 16.5602C30.8039 16.0501 31.6795 15.75 32.6252 15.75C35.0415 15.75 37.0002 17.7088 37.0002 20.125C37.0002 22.5413 35.0415 24.5 32.6252 24.5C31.059 24.5 29.685 23.677 28.9121 22.4398Z" fill="white"/>
<path d="M28.9121 22.4398C28.1966 22.9499 27.321 23.25 26.3752 23.25C23.959 23.25 22.0002 21.2912 22.0002 18.875C22.0002 16.4587 23.959 14.5 26.3752 14.5C27.9415 14.5 29.3155 15.323 30.0884 16.5602M19.5002 37.109H22.7631C23.1885 37.109 23.6113 37.1596 24.0238 37.2607L27.4714 38.0986C28.2194 38.2809 28.9987 38.2985 29.7546 38.1517L33.5665 37.4101C34.5734 37.214 35.4997 36.7317 36.2256 36.0256L38.9226 33.4021C39.6927 32.6542 39.6927 31.4405 38.9226 30.6914C38.2292 30.0167 37.1311 29.9409 36.3466 30.5129L33.2035 32.8061C32.7534 33.1351 32.2056 33.3122 31.6424 33.3122H28.6071H30.5391C31.628 33.3122 32.5101 32.4541 32.5101 31.3949V31.0114C32.5101 30.1319 31.8947 29.365 31.0179 29.1524L28.036 28.4271C27.5507 28.3095 27.0537 28.25 26.5541 28.25C25.3481 28.25 23.1651 29.2485 23.1651 29.2485L19.5002 30.7811M37.0002 20.125C37.0002 22.5412 35.0415 24.5 32.6252 24.5C30.209 24.5 28.2502 22.5412 28.2502 20.125C28.2502 17.7087 30.209 15.75 32.6252 15.75C35.0415 15.75 37.0002 17.7087 37.0002 20.125ZM14.5002 30.25V37.5C14.5002 38.2001 14.5002 38.5501 14.6365 38.8175C14.7563 39.0527 14.9476 39.2439 15.1828 39.3637C15.4501 39.5 15.8002 39.5 16.5002 39.5H17.5002C18.2003 39.5 18.5503 39.5 18.8177 39.3637C19.0529 39.2439 19.2442 39.0527 19.364 38.8175C19.5002 38.5501 19.5002 38.2001 19.5002 37.5V30.25C19.5002 29.5499 19.5002 29.1999 19.364 28.9325C19.2442 28.6972 19.0529 28.5061 18.8177 28.3862C18.5503 28.25 18.2003 28.25 17.5002 28.25H16.5002C15.8002 28.25 15.4501 28.25 15.1828 28.3862C14.9476 28.5061 14.7563 28.6972 14.6365 28.9325C14.5002 29.1999 14.5002 29.5499 14.5002 30.25Z" stroke="white" stroke-width="2" stroke-linecap="round" stroke-linejoin="round"/>
</svg>
