<svg width="53" height="53" viewBox="0 0 53 53" fill="none" xmlns="http://www.w3.org/2000/svg">
<rect x="0.244873" y="0.25" width="52.5149" height="52.5149" rx="8.75247" fill="#8E2CE9"/>
<path d="M39.5 38.25V35.75C39.5 33.4202 37.9065 31.4626 35.75 30.9075M31.375 16.1135C33.2074 16.8552 34.5 18.6516 34.5 20.75C34.5 22.8484 33.2074 24.6449 31.375 25.3865M33.25 38.25C33.25 35.9202 33.25 34.7555 32.8694 33.8366C32.3619 32.6115 31.3885 31.6381 30.1634 31.1306C29.2445 30.75 28.0797 30.75 25.75 30.75H22C19.6703 30.75 18.5054 30.75 17.5866 31.1306C16.3614 31.6381 15.3881 32.6115 14.8806 33.8366C14.5 34.7555 14.5 35.9202 14.5 38.25M28.875 20.75C28.875 23.5114 26.6364 25.75 23.875 25.75C21.1136 25.75 18.875 23.5114 18.875 20.75C18.875 17.9886 21.1136 15.75 23.875 15.75C26.6364 15.75 28.875 17.9886 28.875 20.75Z" stroke="white" stroke-width="2" stroke-linecap="round" stroke-linejoin="round"/>
</svg>
