<svg width="14" height="14" viewBox="0 0 14 14" fill="none" xmlns="http://www.w3.org/2000/svg">
<path d="M6.41667 1.75008H4.55C3.56991 1.75008 3.07986 1.75008 2.70552 1.94082C2.37623 2.1086 2.10852 2.37631 1.94074 2.7056C1.75 3.07994 1.75 3.56999 1.75 4.55008V9.45008C1.75 10.4302 1.75 10.9202 1.94074 11.2946C2.10852 11.6239 2.37623 11.8916 2.70552 12.0593C3.07986 12.2501 3.56991 12.2501 4.55 12.2501H9.45C10.4301 12.2501 10.9201 12.2501 11.2945 12.0593C11.6238 11.8916 11.8915 11.6239 12.0592 11.2946C12.25 10.9202 12.25 10.4302 12.25 9.45008V7.58341M7 4.66675H9.33333V7.00008M9.04167 2.04175V1.16675M11.3396 2.66047L11.9583 2.04175M11.9643 4.95841H12.8393M1.75 7.78589C2.1303 7.84463 2.51992 7.87508 2.91667 7.87508C5.47538 7.87508 7.73809 6.60785 9.11149 4.66675" stroke="#B2B2B5" stroke-linecap="round" stroke-linejoin="round"/>
</svg>
