<svg width="32" height="32" viewBox="0 0 32 32" fill="none" xmlns="http://www.w3.org/2000/svg">
<path opacity="0.12" d="M4 10.4C4 8.15979 4 7.03968 4.43597 6.18404C4.81947 5.43139 5.43139 4.81947 6.18404 4.43597C7.03968 4 8.15979 4 10.4 4H21.6C23.8403 4 24.9603 4 25.816 4.43597C26.5687 4.81947 27.1805 5.43139 27.564 6.18404C28 7.03968 28 8.15979 28 10.4V21.6C28 23.8403 28 24.9603 27.564 25.816C27.1805 26.5687 26.5687 27.1805 25.816 27.564C24.9603 28 23.8403 28 21.6 28H10.4C8.15979 28 7.03968 28 6.18404 27.564C5.43139 27.1805 4.81947 26.5687 4.43597 25.816C4 24.9603 4 23.8403 4 21.6V10.4Z" fill="#F97171"/>
<path d="M28 12L19.402 18.1415C19.1407 18.328 19.0101 18.4213 18.8703 18.4495C18.7469 18.4743 18.6191 18.4637 18.5016 18.4189C18.3683 18.3683 18.2547 18.2547 18.0277 18.0277L13.9723 13.9723C13.7453 13.7453 13.6317 13.6317 13.4984 13.5811C13.3809 13.5363 13.2531 13.5257 13.1298 13.5505C12.9899 13.5787 12.8593 13.672 12.598 13.8585L4 20M10.4 28H21.6C23.8403 28 24.9603 28 25.816 27.564C26.5687 27.1805 27.1805 26.5687 27.564 25.816C28 24.9603 28 23.8403 28 21.6V10.4C28 8.15979 28 7.03968 27.564 6.18404C27.1805 5.43139 26.5687 4.81947 25.816 4.43597C24.9603 4 23.8403 4 21.6 4H10.4C8.15979 4 7.03968 4 6.18404 4.43597C5.43139 4.81947 4.81947 5.43139 4.43597 6.18404C4 7.03968 4 8.15979 4 10.4V21.6C4 23.8403 4 24.9603 4.43597 25.816C4.81947 26.5687 5.43139 27.1805 6.18404 27.564C7.03968 28 8.15979 28 10.4 28Z" stroke="black" stroke-width="2" stroke-linecap="round" stroke-linejoin="round"/>
</svg>
