<svg width="14" height="14" viewBox="0 0 14 14" fill="none" xmlns="http://www.w3.org/2000/svg">
<g clip-path="url(#clip0_263_2228)">
<path d="M10.5003 1.16675L12.8337 3.50008M1.16699 12.8334L1.91156 10.1034C1.96014 9.92521 1.98442 9.83619 2.02171 9.75312C2.05482 9.67939 2.0955 9.60927 2.1431 9.54394C2.1967 9.47038 2.26197 9.40511 2.39252 9.27456L8.42033 3.24673C8.53583 3.13123 8.59358 3.07347 8.6602 3.05184C8.71877 3.0328 8.78188 3.0328 8.84045 3.05184C8.90707 3.07347 8.96482 3.13123 9.08032 3.24673L10.7537 4.9201C10.8692 5.0356 10.9269 5.09336 10.9486 5.15995C10.9676 5.21853 10.9676 5.28163 10.9486 5.34021C10.9269 5.40681 10.8692 5.46456 10.7537 5.58007L4.72585 11.6079C4.59531 11.7384 4.53003 11.8037 4.45646 11.8573C4.39113 11.9049 4.32103 11.9456 4.2473 11.9787C4.16425 12.016 4.07519 12.0403 3.89707 12.0888L1.16699 12.8334Z" stroke="#B2B2B5" stroke-linecap="round" stroke-linejoin="round"/>
</g>
<defs>
<clipPath id="clip0_263_2228">
<rect width="14" height="14" fill="white"/>
</clipPath>
</defs>
</svg>
