<svg width="14" height="14" viewBox="0 0 14 14" fill="none" xmlns="http://www.w3.org/2000/svg">
<path d="M11.6663 7.29175V3.96675C11.6663 2.98665 11.6663 2.49661 11.4756 2.12227C11.3078 1.79298 11.0401 1.52526 10.7108 1.35749C10.3365 1.16675 9.84646 1.16675 8.86634 1.16675H5.13301C4.15291 1.16675 3.66287 1.16675 3.28853 1.35749C2.95924 1.52526 2.69152 1.79298 2.52375 2.12227C2.33301 2.49661 2.33301 2.98665 2.33301 3.96675V10.0334C2.33301 11.0135 2.33301 11.5035 2.52375 11.8779C2.69152 12.2072 2.95924 12.4749 3.28853 12.6427C3.66287 12.8334 4.15291 12.8334 5.13301 12.8334H6.99967M8.16634 6.41675H4.66634M5.83301 8.75008H4.66634M9.33301 4.08341H4.66634M8.45801 11.0834L9.62467 12.2501L12.2497 9.62508" stroke="#B2B2B5" stroke-linecap="round" stroke-linejoin="round"/>
</svg>
