<svg width="32" height="32" viewBox="0 0 32 32" fill="none" xmlns="http://www.w3.org/2000/svg">
<path opacity="0.12" d="M12.6663 14.6667C15.6118 14.6667 17.9997 12.2789 17.9997 9.33333C17.9997 6.38781 15.6118 4 12.6663 4C9.72082 4 7.33301 6.38781 7.33301 9.33333C7.33301 12.2789 9.72082 14.6667 12.6663 14.6667Z" fill="#2BABF5"/>
<path d="M21.3337 24L25.3337 20M25.3337 20L29.3337 24M25.3337 20V28M20.667 4.38768C22.6215 5.17887 24.0003 7.09508 24.0003 9.33333C24.0003 11.5716 22.6215 13.4879 20.667 14.2789M16.0003 20H10.667C8.18197 20 6.93946 20 5.95935 20.406C4.65253 20.9473 3.61427 21.9856 3.07297 23.2924C2.66699 24.2725 2.66699 25.5149 2.66699 28M18.0003 9.33333C18.0003 12.2789 15.6125 14.6667 12.667 14.6667C9.72147 14.6667 7.33366 12.2789 7.33366 9.33333C7.33366 6.38781 9.72147 4 12.667 4C15.6125 4 18.0003 6.38781 18.0003 9.33333Z" stroke="black" stroke-width="2" stroke-linecap="round" stroke-linejoin="round"/>
</svg>
