<svg width="2125px" height="527px" viewBox="0 0 2125 527" fill="none" xmlns="http://www.w3.org/2000/svg" transform="rotate(0) scale(1, 1)">
<path d="M40 144.428C40 134.803 47.8029 127 57.4282 127V127C67.0536 127 74.8564 134.803 74.8564 144.428V360.144H173.561C183.186 360.144 190.989 367.946 190.989 377.572V377.572C190.989 387.197 183.186 395 173.561 395H58.1881C48.1431 395 40 386.857 40 376.812V144.428Z" fill="#ffffff"/>
<path d="M228.428 395C218.803 395 211 387.197 211 377.572V144.428C211 134.803 218.803 127 228.428 127C238.054 127 245.856 134.803 245.856 144.428V377.572C245.856 387.197 238.054 395 228.428 395Z" fill="#ffffff"/>
<path d="M1801.5 395C1791.84 395 1784 387.517 1784 378.287V154.713C1784 145.483 1791.84 138 1801.5 138C1811.16 138 1819 145.483 1819 154.713V378.287C1819 387.517 1811.16 395 1801.5 395Z" fill="#ffffff"/>
<path d="M422.766 144.617C422.766 134.887 430.653 127 440.383 127V127C450.113 127 458 134.887 458 144.617V377.158C458 387.217 449.846 395.371 439.787 395.371H437.967C431.757 395.371 425.975 392.207 422.627 386.976L300.905 196.809V377.919C300.905 387.557 293.091 395.371 283.452 395.371V395.371C273.814 395.371 266 387.557 266 377.919V145.213C266 135.154 274.154 127 284.213 127H290.809C297.089 127 302.927 130.235 306.255 135.561L422.766 322V144.617Z" fill="#ffffff"/>
<path d="M480 146.188C480 136.143 487.479 128 496.704 128H614.883C623.723 128 630.889 135.803 630.889 145.428C630.889 155.054 623.723 162.856 614.883 162.856H514.363V244.105H614.883C623.723 244.105 630.889 251.908 630.889 261.533C630.889 271.159 623.723 278.962 614.883 278.962H514.363V360.144H614.883C623.723 360.144 630.889 367.946 630.889 377.572C630.889 387.197 623.723 395 614.883 395H496.704C487.479 395 480 386.857 480 376.812V146.188Z" fill="#ffffff"/>
<path d="M773.356 127.614C780.948 127.614 787.731 132.359 790.331 139.492L874.655 370.742C878.952 382.528 870.225 395 857.68 395H855.221C847.591 395 840.784 390.207 838.211 383.023L816 321H708L685.789 383.023C683.216 390.207 676.409 395 668.779 395H666.32C653.775 395 645.048 382.528 649.345 370.742L733.669 139.492C736.269 132.359 743.052 127.614 750.644 127.614H773.356ZM803 286L761.5 172L720.5 286H803Z" fill="#ffffff"/>
<path d="M895 145.109C895 135.108 903.108 127 913.109 127H999.115C1021.6 127 1040.8 134.967 1056.74 150.901C1072.67 166.834 1079.49 186.009 1079.49 208.491C1079.49 226.171 1071.86 240.528 1057.98 254.896C1040.76 272.729 1015.7 273.425 999.115 278.664L1072.5 368.5C1082.19 379.292 1074.85 396.491 1060.35 396.948C1055.32 397.107 1050.48 395.041 1047.12 391.302L960 289C951 278.664 929.705 256.653 929.705 256.653V289.721V377.268C929.705 386.852 921.936 394.621 912.353 394.621C902.769 394.621 895 386.852 895 377.268V145.109ZM929.705 161.705C929.705 161.705 928.96 203.644 944.8 222.073C957.816 237.216 970.149 244.51 990.073 245.841C999.115 246.445 1013.86 246.262 1025.16 237.918C1037.25 228.992 1043.27 216.623 1043.27 203.964C1043.27 191.086 1041.35 184.623 1032.18 175.456C1023.02 166.289 1011.99 161.705 999.115 161.705H929.705Z" fill="#ffffff"/>
<path d="M1237.86 128C1245.45 128 1252.23 132.746 1254.83 139.878L1339.15 371.129C1343.45 382.915 1334.73 395.386 1322.18 395.386H1319.72C1312.09 395.386 1305.28 390.593 1302.71 383.41L1280.5 321.386H1172.5L1150.29 383.41C1147.72 390.593 1140.91 395.386 1133.28 395.386H1130.82C1118.27 395.386 1109.55 382.915 1113.85 371.129L1198.17 139.878C1200.77 132.746 1207.55 128 1215.14 128H1237.86ZM1267.5 286.386L1226 172.386L1185 286.386H1267.5Z" fill="#ffffff"/>
<path d="M1517.95 138C1527.78 138 1535.74 145.964 1535.74 155.789V304.893C1535.74 329.72 1526.88 351 1509.14 368.733C1491.63 386.244 1470.46 395 1443.34 395C1418.73 395 1397.56 386.244 1379.83 368.733C1362.1 351 1353.23 329.72 1353.23 304.893V155.789C1353.23 145.964 1361.19 138 1371.02 138V138C1380.84 138 1388.81 145.964 1388.81 155.789V304.893C1388.81 319.966 1394.13 332.934 1404.77 343.795C1415.41 354.435 1428.26 359.755 1443.34 359.755C1458.19 359.755 1473.23 354.435 1483.87 343.795C1494.73 332.934 1500.17 319.966 1500.17 304.893V155.789C1500.17 145.964 1508.13 138 1517.95 138V138Z" fill="#ffffff"/>
<path d="M1628.99 136C1676.5 136 1698.27 144.774 1724 170.5C1749.73 196.012 1760.19 227.888 1760.19 264.119C1760.19 299.921 1747.94 335.187 1722 360.913C1696.27 386.639 1671.79 395 1635.99 395H1589.79C1579.96 395 1572 387.037 1572 377.213V153.787C1572 143.963 1579.96 136 1589.79 136H1628.99ZM1606.09 360.913H1635.99C1662.57 360.913 1683.63 353.366 1702.5 334.5C1721.58 315.42 1725.78 290.703 1725.78 264.119C1725.78 237.536 1715.58 210.58 1696.5 191.5C1677.63 172.42 1655.57 170.087 1628.99 170.087H1606.09V360.913Z" fill="#ffffff"/>
<path d="M2008.04 136C2017.41 136 2025 143.594 2025 152.962V152.962V155.799C2025 165.575 2017.07 173.5 2007.3 173.5H1952.19V379.878C1952.19 389.334 1944.52 397 1935.07 397V397C1925.61 397 1917.94 389.334 1917.94 379.878V173.5H1862.7C1852.93 173.5 1845 165.575 1845 155.799V153.701C1845 143.925 1852.93 136 1862.7 136H2008.04Z" fill="#ffffff"/>
<path d="M105 429H119.079L142 472L137.501 473.524L137.182 429H153.422V485.873L135.5 485.5L117 448L120.313 446.562V485.873H105V429Z" fill="#ffffff"/>
<path d="M429 429H443.079L466 472L461.501 473.524L461.182 429H477.422V485.873L459.5 485.5L441 448L444.313 446.562V485.873H429V429Z" fill="#ffffff"/>
<path d="M56.1452 465.166C56.1452 467.97 56.8643 470.208 58.3026 471.88C59.7408 473.552 61.3878 474.388 63.2436 474.388C65.0993 474.388 66.6536 473.552 67.9062 471.88C69.2052 470.208 69.8548 467.97 69.8548 465.166V429H86V462.166C86 467.181 85.0489 471.55 83.1467 475.271C81.291 478.992 78.6465 481.877 75.2133 483.926C71.8265 485.975 67.8134 487 63.174 487C58.5345 487 54.475 485.975 50.9955 483.926C47.5159 481.877 44.8018 478.992 42.8533 475.271C40.9511 471.55 40 467.181 40 462.166V429H56.1452V465.166Z" fill="#ffffff"/>
<path d="M981.145 465.166C981.145 467.97 981.864 470.208 983.303 471.88C984.741 473.552 986.388 474.388 988.244 474.388C990.099 474.388 991.654 473.552 992.906 471.88C994.205 470.208 994.855 467.97 994.855 465.166V429H1011V462.166C1011 467.181 1010.05 471.55 1008.15 475.271C1006.29 478.992 1003.65 481.877 1000.21 483.926C996.827 485.975 992.813 487 988.174 487C983.535 487 979.475 485.975 975.995 483.926C972.516 481.877 969.802 478.992 967.853 475.271C965.951 471.55 965 467.181 965 462.166V429H981.145V465.166Z" fill="#ffffff"/>
<path d="M2059.78 99L2048.8 81.4856H2039.21V99H2029V53H2048.41C2055.38 53 2060.58 54.1897 2064.04 56.569C2067.49 58.9483 2069.22 62.4071 2069.22 66.9454C2069.22 70.1619 2068.37 72.8937 2066.67 75.1408C2064.97 77.3879 2062.44 79.0623 2059.09 80.1638L2071 99H2059.78ZM2039.21 72.819H2048.49C2051.9 72.819 2054.4 72.3123 2055.99 71.2989C2057.64 70.2854 2058.47 68.5671 2058.47 66.1437C2058.47 63.8084 2057.6 62.4693 2056 61.5C2054.4 60.5307 2051.92 60.7328 2048.41 60.7328H2039.21V72.819Z" fill="#ffffff"/>
<path d="M172 429H189.837V474.867H208.028V485.873H172V429Z" fill="#ffffff"/>
<path d="M917 429H934.837V474.867H953.028V485.873H917V429Z" fill="#ffffff"/>
<path d="M241.5 429C245.064 429 248.33 429.713 251.3 431.139C254.27 432.566 256.858 434.573 259.064 437.161C261.27 439.75 262.967 442.813 264.155 446.352C265.385 449.839 266 453.668 266 457.842C266 462.015 265.385 465.897 264.155 469.489C262.967 473.028 261.27 476.118 259.064 478.76C256.858 481.348 254.27 483.382 251.3 484.861C248.33 486.287 245.064 487 241.5 487C237.936 487 234.67 486.287 231.7 484.861C228.73 483.382 226.142 481.348 223.936 478.76C221.73 476.118 220.012 473.028 218.782 469.489C217.594 465.95 217 462.067 217 457.842C217 453.616 217.594 449.76 218.782 446.273C220.012 442.734 221.73 439.697 223.936 437.161C226.142 434.573 228.73 432.566 231.7 431.139C234.67 429.713 237.936 429 241.5 429ZM241.691 440.292C240.418 440.292 239.188 440.636 238 441.322C236.855 441.956 235.836 442.907 234.945 444.175C234.097 445.39 234.009 446.816 233.5 448.454C232.991 450.091 232.736 455.913 232.736 457.921C232.736 459.875 232.991 464.698 233.5 466.388C234.009 468.078 233.994 469.302 235.009 470.825C235.915 472.183 236.918 472.991 238.064 473.678C239.209 474.364 240.418 474.708 241.691 474.708C242.964 474.708 244.152 474.364 245.255 473.678C246.358 472.991 246.979 471.961 247.827 470.746C248.676 469.478 249.333 467.999 249.8 466.309C250.267 464.618 250.5 459.796 250.5 457.842C250.5 455.834 250.267 450.012 249.8 448.374C249.333 446.737 248.676 445.311 247.827 444.096C246.979 442.828 246.358 441.956 245.255 441.322C244.152 440.636 242.964 440.292 241.691 440.292Z" fill="#ffffff"/>
<path d="M333 429H350.836V452L361.5 429H381L365 454L358.5 462.5L350.765 466.5L350.474 485.5H332.637L333 429ZM365.5 447.5C365.5 447.5 360.718 453.73 362.324 457.5C362.784 458.582 364 460 364 460L381 485.5H361.5L355.5 466.5H350.765L365.5 447.5Z" fill="#ffffff"/>
<path d="M393 429H410V485H393V429Z" fill="#ffffff"/>
<path d="M492 458.737C492 452.879 493.105 447.786 495.316 443.458C497.579 439.131 500.816 435.806 505.026 433.483C509.289 431.161 514.316 429 520.105 429C523.421 429 526.029 428.997 529.5 429.5C532.824 429.982 537.5 431 537.5 431L537 441.5C537 441.5 531.529 441 529.5 441C525.921 441 520.5 441.5 520.5 441.5C520.5 441.5 509.5 442.237 509.5 458.737C509.5 463.907 509.047 468.652 512.5 472.5C513.804 473.953 514.628 474.443 516.5 475C518.802 475.685 522.579 474.571 522.579 474.571V464.258H518.158V453.55H540V484.5C535.789 487.086 532.74 486.971 528.5 487.5C524.692 487.975 517.5 487.5 517.5 487.5C517.5 487.5 508.658 485.839 504.553 483.517C500.447 481.194 497.316 477.922 495.158 473.7C493.053 469.425 492 464.437 492 458.737Z" fill="#ffffff"/>
<path d="M587 429H630.793V441.281H618.279V484.873H601.442V441.281H587V429Z" fill="#ffffff"/>
<path d="M646 429H661.99V451.789H675.01V429H694V486H675.01V464.593H661.99V486H646V429Z" fill="#ffffff"/>
<path d="M711 429H746.462V441.06H729.874V451.93H746.488V461.99H729.874V474.94H749V486H711V429Z" fill="#ffffff"/>
<path d="M1030 429H1065.46V441.06H1048.87V451.93H1065.49V461.99H1048.87V474.94H1068V486H1030V429Z" fill="#ffffff"/>
<path d="M792 429H809.623L819.926 465.748L830.159 429H847L827.956 485H810.902L792 429Z" fill="#ffffff"/>
<path d="M868.5 429H889L903.5 485H885.5L878 441.5L869.324 485H851.5L868.5 429ZM862.408 463.83H891.367V475.091H862.408V463.83Z" fill="#ffffff"/>
<circle cx="1137.5" cy="461.5" r="24.5" fill="#ffffff"/>
<circle cx="2000.5" cy="461.5" r="24.5" fill="#ffffff"/>
<rect x="1152" y="449" width="847" height="25" fill="#ffffff"/>
<circle cx="2049.5" cy="74.5" r="40" stroke="#ffffff" stroke-width="9"/>
<path d="M317.5 440.5H314C314 440.5 309.433 440.727 307.5 441C307.374 441.018 307.251 441.037 307.131 441.059C298.659 441.776 292 449.086 292 458C292 467.389 299.387 475 308.5 475H317.5L317 487.5H301.48C301.435 487.495 295.615 486.794 292.268 485.24C288.598 483.537 286.539 482.545 283.5 479.5C280.436 476.43 278.964 473.039 277.5 469.5C276.089 465.908 276 461.988 276 457.763C276 453.59 276.732 449.76 278.195 446.273C279.659 442.787 281.723 439.749 284.389 437.161C287.107 434.573 290.269 432.566 293.876 431.14C297.535 429.713 304.5 429 304.5 429L314.5 428.5H317.5V440.5Z" fill="#ffffff"/>
</svg>